<svg id="SvgjsSvg1008" xmlns="http://www.w3.org/2000/svg" version="1.1" xmlns:xlink="http://www.w3.org/1999/xlink" xmlns:svgjs="http://svgjs.com/svgjs" width="124" height="153"><defs id="SvgjsDefs1009"></defs><path id="SvgjsPath1010" d="M1039.02 1214.63C1033.49 1214.71 1029.31 1217.16 1026.48 1222C1023.66 1226.83 1019.83 1227.87 1015.01 1225.12C1010.1899999999999 1222.3799999999999 1005.36 1222.3799999999999 1000.54 1225.12C995.717 1227.87 991.8919999999999 1226.83 989.0649999999999 1222C986.2379999999999 1217.16 982.0619999999999 1214.71 976.535 1214.63C971.0079999999999 1214.5600000000002 968.208 1211.71 968.135 1206.0900000000001C968.061 1200.46 965.649 1196.21 960.9 1193.3300000000002C956.15 1190.4600000000003 955.125 1186.5700000000002 957.8249999999999 1181.66C960.525 1176.75 960.525 1171.8400000000001 957.8249999999999 1166.93C955.1249999999999 1162.03 956.15 1158.13 960.9 1155.26C965.649 1152.3799999999999 968.0609999999999 1148.1299999999999 968.135 1142.51C968.208 1136.8799999999999 971.008 1134.03 976.535 1133.96C982.062 1133.88 986.2379999999999 1131.43 989.0649999999999 1126.5900000000001C991.8919999999999 1121.7600000000002 995.717 1120.7200000000003 1000.54 1123.4700000000003C1005.36 1126.2100000000003 1010.1899999999999 1126.2100000000003 1015.01 1123.4700000000003C1019.83 1120.7200000000003 1023.66 1121.7600000000002 1026.48 1126.5900000000001C1029.31 1131.43 1033.49 1133.88 1039.02 1133.96C1044.54 1134.03 1047.34 1136.88 1047.42 1142.51C1047.49 1148.1299999999999 1049.9 1152.3799999999999 1054.65 1155.26C1059.4 1158.1299999999999 1060.42 1162.03 1057.72 1166.93C1055.02 1171.8400000000001 1055.02 1176.75 1057.72 1181.66C1060.42 1186.5700000000002 1059.4 1190.46 1054.65 1193.3300000000002C1049.9 1196.2100000000003 1047.49 1200.4600000000003 1047.42 1206.0900000000001C1047.3400000000001 1211.71 1044.54 1214.5600000000002 1039.02 1214.63ZM968.69 1214.35C968.69 1214.35 969.4620000000001 1217.12 975.2850000000001 1217.12C988.67794 1217.41998 984.3716800000001 1228.5982299999998 995.22342 1228.8699399999998C994.9575 1229.1502099999998 974.2620000000001 1273.1 974.2620000000001 1273.1L964.19 1257.6899999999998L945.9780000000001 1259.7699999999998ZM1014.07 1153.7L1007.33 1153.7C1006.39 1156.39 1004.64 1158.74 1002.1 1160.75C999.558 1162.76 997.203 1164.13 995.0360000000001 1164.85L995.0360000000001 1172.52C999.157 1171.1299999999999 1002.74 1169 1005.7700000000001 1166.11L1005.7700000000001 1198L1014.07 1198ZM995.226 1228.87C995.22514 1228.86998 995.22428 1228.86996 995.22342 1228.8699399999998C995.22514 1228.8681299999998 995.226 1228.8681399999998 995.226 1228.87ZM1068.02 1259.77L1050.1 1257.4L1043.81 1273.99L1018.1899999999999 1229.17C1018.1899999999999 1229.17 1023.64 1230.0800000000002 1028.01 1225.3400000000001C1031.79 1222.0800000000002 1028.42 1217.91 1045.02 1216.13Z " fill="#ffffff" transform="matrix(1,0,0,1,-945,-1121)"></path></svg>