<svg id="SvgjsSvg1000" xmlns="http://www.w3.org/2000/svg" version="1.1" xmlns:xlink="http://www.w3.org/1999/xlink" xmlns:svgjs="http://svgjs.com/svgjs" width="43" height="30"><defs id="SvgjsDefs1001"></defs><path id="SvgjsPath1007" d="M584 181.138C584 182.991 585.581 184.49200000000002 587.532 184.49200000000002L622.851 184.49200000000002C624.802 184.49200000000002 626.382 182.991 626.382 181.138L626.382 158.497C626.382 156.644 624.8019999999999 155.143 622.851 155.143L587.532 155.143C585.581 155.143 584 156.644 584 158.497ZM596.997 169.843L588.918 162.11999999999998C588.248 161.48199999999997 588.248 160.45099999999996 588.918 159.81399999999996C589.589 159.17599999999996 590.675 159.17599999999996 591.346 159.81399999999996L604.237 172.07299999999998C604.7579999999999 172.55899999999997 605.615 172.55899999999997 606.127 172.07299999999998L619.036 159.81399999999996C619.7059999999999 159.17599999999996 620.7929999999999 159.17599999999996 621.4639999999999 159.81399999999996C622.135 160.45099999999996 622.135 161.48199999999997 621.4639999999999 162.11999999999998L613.376 169.843L621.4639999999999 177.515C622.135 178.153 622.135 179.184 621.4639999999999 179.821C620.7929999999999 180.458 619.7059999999999 180.458 619.036 179.821L610.9559999999999 172.157C610.9559999999999 172.157 608.4309999999999 174.597 607.973 175.03300000000002C607.257 175.69500000000002 606.2679999999999 176.10600000000002 605.1909999999999 176.10600000000002C604.0959999999999 176.10600000000002 603.107 175.687 602.3919999999999 175.008C601.924 174.572 599.4169999999999 172.157 599.4169999999999 172.157L591.3459999999999 179.821C590.6749999999998 180.458 589.5889999999999 180.458 588.9179999999999 179.821C588.2479999999999 179.184 588.2479999999999 178.153 588.9179999999999 177.515Z " fill="#ffffff" transform="matrix(1,0,0,1,-584,-155)"></path></svg>