<svg id="SvgjsSvg1008" xmlns="http://www.w3.org/2000/svg" version="1.1" xmlns:xlink="http://www.w3.org/1999/xlink" xmlns:svgjs="http://svgjs.com/svgjs" width="38" height="38"><defs id="SvgjsDefs1009"></defs><path id="SvgjsPath1010" d="M701.467 171.8L698.395 171.8C698.0989999999999 172.845 697.691 173.841 697.173 174.77100000000002L699.327 176.924C700.321 177.919 700.321 179.531 699.327 180.526L697.526 182.327C696.531 183.321 694.919 183.321 693.924 182.327L691.771 180.173C690.841 180.691 689.8449999999999 181.099 688.8 181.395L688.8 184.466C688.8 185.866 687.6659999999999 187 686.266 187L683.733 187C682.334 187 681.1999999999999 185.866 681.1999999999999 184.466L681.1999999999999 181.395C680.117 181.08800000000002 679.0889999999999 180.65800000000002 678.1299999999999 180.113L675.9169999999999 182.327C674.9219999999999 183.321 673.31 183.321 672.3149999999999 182.327L670.515 180.526C669.52 179.531 669.52 177.919 670.515 176.924L672.7669999999999 174.672C672.275 173.772 671.89 172.807 671.6039999999999 171.8L668.5329999999999 171.8C667.1339999999999 171.8 665.9999999999999 170.66600000000003 665.9999999999999 169.26600000000002L665.9999999999999 166.73300000000003C665.9999999999999 165.33400000000003 667.1339999999999 164.20000000000005 668.5329999999999 164.20000000000005L671.6039999999999 164.20000000000005C671.901 163.15500000000006 672.3079999999999 162.15900000000005 672.8269999999999 161.22900000000004L670.5149999999999 158.91700000000003C669.5199999999999 157.92200000000003 669.5199999999999 156.31000000000003 670.5149999999999 155.31500000000003L672.3149999999998 153.51500000000001C673.3099999999998 152.52 674.9219999999998 152.52 675.9169999999998 153.51500000000001L678.2289999999998 155.82700000000003C679.1589999999998 155.30900000000003 680.1549999999999 154.90100000000004 681.1999999999998 154.60500000000002L681.1999999999998 151.53300000000002C681.1999999999998 150.13400000000001 682.3339999999998 149.00000000000003 683.7329999999998 149.00000000000003L686.2659999999998 149.00000000000003C687.6659999999998 149.00000000000003 688.7999999999998 150.13400000000001 688.7999999999998 151.53300000000002L688.7999999999998 154.60500000000002C689.8069999999998 154.89000000000001 690.7719999999998 155.275 691.6719999999998 155.76700000000002L693.9239999999998 153.51500000000001C694.9189999999998 152.52 696.5309999999997 152.52 697.5259999999997 153.51500000000001L699.3269999999998 155.31500000000003C700.3209999999998 156.31000000000003 700.3209999999998 157.92200000000003 699.3269999999998 158.91700000000003L697.1129999999997 161.13000000000002C697.6579999999997 162.08900000000003 698.0879999999997 163.11700000000002 698.3949999999998 164.20000000000002L701.4669999999998 164.20000000000002C702.8659999999998 164.20000000000002 703.9999999999998 165.334 703.9999999999998 166.733L703.9999999999998 169.266C703.9999999999998 170.666 702.8659999999998 171.79999999999998 701.4669999999998 171.79999999999998ZM677.4 168C677.4 172.197 680.802 175.6 685 175.6C689.197 175.6 692.6 172.197 692.6 168C692.6 163.803 689.197 160.4 685 160.4C680.802 160.4 677.4 163.803 677.4 168Z " fill="#ffffff" transform="matrix(1,0,0,1,-666,-149)"></path></svg>